HIERARCHY
ROOT Hips
{
	OFFSET -0.001795 -0.223333 0.028219
	CHANNELS 6 Xposition Yposition Zposition Zrotation Yrotation Xrotation 
	JOINT LeftUpLeg
	{
		OFFSET 0.069520 -0.091406 -0.006815
		CHANNELS 3 Zrotation Yrotation Xrotation
		JOINT LeftLeg
		{
			OFFSET 0.034277 -0.375199 -0.004496
			CHANNELS 3 Zrotation Yrotation Xrotation
			JOINT LeftFoot
			{
				OFFSET -0.013596 -0.397961 -0.043693
				CHANNELS 3 Zrotation Yrotation Xrotation
				JOINT LeftToe
				{
					OFFSET 0.026358 -0.055791 0.119288
					CHANNELS 3 Zrotation Yrotation Xrotation
					End Site
					{
						OFFSET 0.000000 0.000000 0.000000
					}
				}
			}
		}
	}
	JOINT RightUpLeg
	{
		OFFSET -0.067670 -0.090522 -0.004320
		CHANNELS 3 Zrotation Yrotation Xrotation
		JOINT RightLeg
		{
			OFFSET -0.038290 -0.382569 -0.008850
			CHANNELS 3 Zrotation Yrotation Xrotation
			JOINT RightFoot
			{
				OFFSET 0.015774 -0.398415 -0.042312
				CHANNELS 3 Zrotation Yrotation Xrotation
				JOINT RightToe
				{
					OFFSET -0.025372 -0.048144 0.123348
					CHANNELS 3 Zrotation Yrotation Xrotation
					End Site
					{
						OFFSET 0.000000 0.000000 0.000000
					}
				}
			}
		}
	}
	JOINT Spine
	{
		OFFSET -0.002533 0.108963 -0.026696
		CHANNELS 3 Zrotation Yrotation Xrotation
		JOINT Spine1
		{
			OFFSET 0.005487 0.135180 0.001092
			CHANNELS 3 Zrotation Yrotation Xrotation
			JOINT Spine2
			{
				OFFSET 0.001457 0.052922 0.025425
				CHANNELS 3 Zrotation Yrotation Xrotation
				JOINT Neck
				{
					OFFSET -0.002778 0.213870 -0.042857
					CHANNELS 3 Zrotation Yrotation Xrotation
					JOINT Head
					{
						OFFSET 0.005152 0.064970 0.051349
						CHANNELS 3 Zrotation Yrotation Xrotation
						End Site
						{
							OFFSET 0.000000 0.000000 0.000000
						}
					}
				}
				JOINT LeftShoulder
				{
					OFFSET 0.078845 0.121749 -0.034090
					CHANNELS 3 Zrotation Yrotation Xrotation
					JOINT LeftArm
					{
						OFFSET 0.090977 0.030469 -0.008868
						CHANNELS 3 Zrotation Yrotation Xrotation
						JOINT LeftForeArm
						{
							OFFSET 0.259612 -0.012772 -0.027456
							CHANNELS 3 Zrotation Yrotation Xrotation
							JOINT LeftHand
							{
								OFFSET 0.249234 0.008986 -0.001171
								CHANNELS 3 Zrotation Yrotation Xrotation
								End Site
								{
									OFFSET 0.000000 0.000000 0.000000
								}
							}
						}
					}
				}
				JOINT RightShoulder
				{
					OFFSET -0.081759 0.118833 -0.038615
					CHANNELS 3 Zrotation Yrotation Xrotation
					JOINT RightArm
					{
						OFFSET -0.096012 0.032551 -0.009143
						CHANNELS 3 Zrotation Yrotation Xrotation
						JOINT RightForeArm
						{
							OFFSET -0.253742 -0.013329 -0.021401
							CHANNELS 3 Zrotation Yrotation Xrotation
							JOINT RightHand
							{
								OFFSET -0.255298 0.007772 -0.005559
								CHANNELS 3 Zrotation Yrotation Xrotation
								End Site
								{
									OFFSET 0.000000 0.000000 0.000000
								}
							}
						}
					}
				}
			}
		}
	}
}
MOTION
Frames: 10
Frame Time: 0.050000
-0.969153 0.935220 1.435575 -125.836056 -87.579326 128.794090 2.229232 1.440750 1.650684 3.582461 0.155558 2.576551 -10.863365 -7.859439 -0.082059 0.000000 0.000000 0.000000 4.745816 -0.023836 -0.957239 -5.554922 0.296179 -1.024214 9.212620 23.277988 1.095599 0.000000 0.000000 0.000000 -3.173762 0.598955 -3.669710 1.772516 -0.435897 -8.135340 0.422191 -4.567475 4.955865 5.598641 -5.857287 -21.284573 0.000000 0.000000 0.000000 19.874874 -24.928509 5.554270 20.345990 -37.771386 -0.091681 33.801543 -9.587631 1.105516 0.000000 0.000000 0.000000 -10.457153 16.314721 7.763385 -6.288493 43.919229 -15.521750 -40.895755 34.838768 -23.632468 0.000000 0.000000 0.000000 
-0.969066 0.935151 1.435117 -116.996925 -87.675392 120.007819 2.386510 1.465943 1.686980 3.578354 0.195427 2.919641 -11.255535 -8.470104 -0.145788 0.000000 0.000000 0.000000 5.001188 -0.052725 -0.882555 -5.964501 0.286713 -0.410263 8.563405 23.302453 0.348158 0.000000 0.000000 0.000000 -3.308946 0.623734 -3.801573 1.741868 -0.462376 -8.236198 0.518177 -4.869837 5.183576 5.568592 -5.830249 -21.021625 0.000000 0.000000 0.000000 20.524788 -24.940013 5.259875 21.195587 -38.399035 -0.102367 33.300580 -8.911155 1.199674 0.000000 0.000000 0.000000 -10.785794 15.551759 7.837200 -6.832205 44.756471 -16.303472 -40.662745 34.546074 -23.303306 0.000000 0.000000 0.000000 
-0.968847 0.935074 1.435013 -110.141776 -87.750109 113.037698 2.492671 1.478761 1.673180 3.563952 0.261759 3.388456 -11.257513 -8.656163 0.019716 0.000000 0.000000 0.000000 5.001609 -0.053637 -0.696155 -5.915024 0.289108 -0.184454 8.372783 23.128301 0.164118 0.000000 0.000000 0.000000 -3.382593 0.616580 -3.719930 1.694264 -0.494591 -8.407348 0.552179 -5.050152 5.250328 5.483415 -5.798796 -20.877912 0.000000 0.000000 0.000000 20.793407 -24.774347 5.033361 21.736897 -39.871746 -0.133719 33.512404 -8.854914 1.154298 0.000000 0.000000 0.000000 -11.259160 15.328704 8.100419 -6.878783 45.274710 -16.738209 -40.951287 34.364356 -23.447987 0.000000 0.000000 0.000000 
-0.968473 0.934808 1.435113 -88.718720 -87.890236 91.558488 2.601991 1.462963 1.551227 3.342261 0.384010 3.922848 -11.370104 -9.062374 -0.288593 0.000000 0.000000 0.000000 5.264936 -0.084474 -0.539316 -6.221253 0.285057 0.046634 7.616345 23.112387 -0.724799 0.000000 0.000000 0.000000 -3.472945 0.620543 -3.751943 1.775733 -0.530154 -8.337838 0.353834 -5.187983 5.387600 5.154866 -5.701827 -20.216008 0.000000 0.000000 0.000000 21.127295 -25.035368 4.918179 21.938427 -40.520273 -0.179081 34.519999 -8.624903 1.233279 0.000000 0.000000 0.000000 -11.557778 15.061217 8.263002 -6.867592 45.438713 -16.824702 -41.123497 34.149204 -23.417617 0.000000 0.000000 0.000000 
-0.967859 0.934367 1.435345 -76.497740 -87.779668 79.094362 2.960376 1.529678 1.489603 3.086010 0.549760 4.574056 -11.429974 -9.318192 -0.616975 0.000000 0.000000 0.000000 5.083661 -0.067488 -0.213813 -5.980393 0.292758 0.326060 7.279370 22.837199 -1.060375 0.000000 0.000000 0.000000 -3.334388 0.588813 -3.669512 1.797843 -0.557937 -8.345607 0.085802 -4.808197 5.416904 5.293089 -5.768325 -19.847030 0.000000 0.000000 0.000000 21.278570 -25.503539 4.933419 21.539729 -41.424952 -0.199039 35.700395 -8.850169 1.177583 0.000000 0.000000 0.000000 -11.473007 15.052818 8.239228 -6.347391 45.450985 -16.466063 -40.997845 34.699170 -23.563194 0.000000 0.000000 0.000000 
-0.967048 0.933800 1.435590 -60.858044 -87.534281 63.531355 3.215440 1.568814 1.508754 2.779190 0.658402 4.822694 -11.795971 -9.921678 -1.088561 0.000000 0.000000 0.000000 4.955938 -0.069284 -0.317329 -5.742843 0.289912 0.269370 6.550890 22.363461 -1.689278 0.000000 0.000000 0.000000 -3.428009 0.608487 -3.809986 1.886376 -0.604316 -8.422563 -0.001282 -4.761133 5.868941 5.077984 -5.750163 -19.812437 0.000000 0.000000 0.000000 21.120594 -25.744104 5.051401 21.235236 -42.029186 -0.238318 37.644541 -8.843049 1.276898 0.000000 0.000000 0.000000 -11.427861 14.907027 8.198250 -6.331492 46.034135 -16.810251 -41.251484 34.723627 -23.594501 0.000000 0.000000 0.000000 
-0.966189 0.933244 1.435784 -52.567807 -87.227913 55.120062 3.504865 1.652687 1.814655 2.497301 0.673152 4.574073 -11.733642 -10.051176 -0.958723 0.000000 0.000000 0.000000 4.986963 -0.068342 0.056466 -5.780802 0.274560 -0.028549 6.950524 22.565420 -1.398927 0.000000 0.000000 0.000000 -3.494748 0.623953 -3.939660 1.994125 -0.593830 -8.071473 -0.118774 -4.568696 5.781077 5.304480 -5.785867 -19.116579 0.000000 0.000000 0.000000 20.690486 -25.955521 5.253090 20.685998 -42.385676 -0.304703 39.693453 -8.772616 1.402437 0.000000 0.000000 0.000000 -11.105384 15.159509 8.079446 -5.460868 45.884853 -16.108895 -41.897417 34.852455 -23.923668 0.000000 0.000000 0.000000 
-0.965293 0.933177 1.436198 -53.693180 -87.203813 56.277028 3.526814 1.690488 2.111665 2.675139 0.577966 4.315916 -11.711112 -9.934300 -1.040936 0.000000 0.000000 0.000000 4.904939 -0.056775 0.145392 -5.614807 0.267134 -0.419851 7.466851 22.994124 -0.992651 0.000000 0.000000 0.000000 -3.615731 0.667393 -4.204925 2.215011 -0.688009 -8.551769 -0.249067 -3.813729 6.321557 5.400219 -5.892534 -19.066111 0.000000 0.000000 0.000000 21.164044 -26.101994 4.989070 18.820027 -42.932612 0.127060 41.003764 -8.954838 1.516730 0.000000 0.000000 0.000000 -10.864698 14.875014 7.892967 -3.810546 46.357276 -15.550371 -42.045372 36.064109 -24.708753 0.000000 0.000000 0.000000 
-0.964377 0.933456 1.437275 -51.507974 -87.126629 54.165121 3.388054 1.710385 2.665020 3.098719 0.334382 3.586381 -11.730132 -9.969982 -0.735459 0.000000 0.000000 0.000000 4.917679 -0.053714 0.312345 -5.650064 0.252302 -1.391764 8.273067 22.904973 -0.071708 0.000000 0.000000 0.000000 -3.427730 0.676776 -4.431877 2.013428 -0.657727 -8.584857 -0.060534 -3.830600 6.714362 5.055473 -5.812298 -19.264280 0.000000 0.000000 0.000000 20.461874 -25.533077 5.033422 17.992967 -43.081887 0.225219 42.007211 -9.658980 1.411924 0.000000 0.000000 0.000000 -10.837319 14.905430 7.858420 -2.775360 46.207001 -15.000556 -42.438157 37.399349 -25.914102 0.000000 0.000000 0.000000 
-0.963252 0.933875 1.439745 -60.516195 -87.408859 63.349315 3.021889 1.682206 3.023655 3.187806 0.221975 2.882147 -11.363760 -9.370824 -0.485696 0.000000 0.000000 0.000000 4.796442 -0.041795 0.064849 -5.440465 0.267264 -1.343244 8.630942 23.637696 0.088880 0.000000 0.000000 0.000000 -3.255191 0.693601 -4.613852 1.896407 -0.628310 -8.707488 -0.007914 -3.156864 6.530760 5.093735 -5.854050 -19.675949 0.000000 0.000000 0.000000 20.124319 -25.465222 5.131563 17.215410 -43.346398 0.341867 42.165966 -9.964510 1.296060 0.000000 0.000000 0.000000 -10.508705 14.828692 7.646826 -0.910772 45.643108 -13.755236 -43.711955 39.081161 -27.892735 0.000000 0.000000 0.000000 
